# xmcd CD database file
#
# Track frame offsets:
#	150
#	11682
#	24080
#	42142
#	54881
#	66925
#	80089
#	91948
#	105412
#	122694
#
# Disc length: 1788 seconds
#
# Revision: 0
# Processed by: cddbd v1.5.2PL0 Copyright (c) Steve Scherf et al.
# Submitted via: CDex 1.51
#
DISCID=6e06fa0a
DTITLE=Freddy Fender - Texas Tunes
DYEAR=1900
DGENRE=Country
TTITLE0=Before The Next Teardrop Falls
TTITLE1=Wasted Days and Wasted Nights
TTITLE2=Secret Love (Live)
TTITLE3=My Special Prayer
TTITLE4=Ooh Poo Pah Doo
TTITLE5=Since I Met My Baby
TTITLE6=Come Back Home
TTITLE7=I Can't Stop Loving You (Live)
TTITLE8=Jambalaya (On The Bayou) (Live)
TTITLE9=I'm Leaving It All Up To You
EXTD=
EXTT0=
EXTT1=
EXTT2=
EXTT3=
EXTT4=
EXTT5=
EXTT6=
EXTT7=
EXTT8=
EXTT9=
PLAYORDER=
